<svg width="437" height="107" viewBox="0 0 437 107" fill="none" xmlns="http://www.w3.org/2000/svg">
<path d="M1.78988 25.0973H62.8249V35.0312H1.78988V25.0973ZM26.4008 33.7782H38.3035V83H26.4008V33.7782Z" fill="#232323"/>
<path d="M65.3237 38.5214H76.9579V83H65.3237V38.5214ZM94.0513 48.0973C90.7102 48.0973 87.8166 48.7536 85.3704 50.0662C82.9242 51.3191 80.9553 52.8703 79.4638 54.7199C77.9722 56.5694 76.9281 58.3593 76.3315 60.0895L76.242 55.1673C76.3016 54.4514 76.5403 53.4073 76.9579 52.035C77.3756 50.6031 78.002 49.0817 78.8373 47.4708C79.6726 45.8003 80.7764 44.2192 82.1486 42.7277C83.5208 41.1764 85.1914 39.9235 87.1603 38.9689C89.1291 38.0143 91.4262 37.537 94.0513 37.537V48.0973Z" fill="#232323"/>
<path d="M114.578 19.0117V29.214H101.065V19.0117H114.578ZM101.96 38.5214H113.594V83H101.96V38.5214Z" fill="#232323"/>
<path d="M157.587 84.0739C153.649 84.0739 150.279 83.3878 147.474 82.0156C144.73 80.5837 142.493 78.7341 140.762 76.4669C139.032 74.1401 137.749 71.6044 136.914 68.8599C136.079 66.1155 135.661 63.4306 135.661 60.8055C135.661 57.524 136.049 54.4812 136.825 51.6771C137.66 48.8729 138.943 46.4267 140.673 44.3386C142.403 42.1907 144.64 40.5201 147.385 39.3269C150.189 38.1336 153.59 37.537 157.587 37.537C162.062 37.537 166.089 38.5214 169.669 40.4903C173.249 42.4592 176.083 45.2037 178.171 48.7238C180.319 52.1842 181.393 56.2114 181.393 60.8055C181.393 65.5188 180.319 69.6356 178.171 73.1557C176.023 76.6161 173.159 79.3009 169.579 81.2101C166 83.1193 162.002 84.0739 157.587 84.0739ZM153.828 75.035C156.991 75.035 159.735 74.4384 162.062 73.2451C164.448 72.0519 166.268 70.4112 167.521 68.323C168.834 66.1751 169.49 63.6693 169.49 60.8055C169.49 56.5097 168.118 53.0493 165.373 50.4242C162.688 47.799 158.84 46.4864 153.828 46.4864C150.666 46.4864 147.773 47.0532 145.148 48.1868C142.582 49.3204 140.554 50.9611 139.062 53.109C137.57 55.1972 136.825 57.7627 136.825 60.8055C136.825 63.6693 137.511 66.1751 138.883 68.323C140.255 70.4112 142.224 72.0519 144.79 73.2451C147.355 74.4384 150.368 75.035 153.828 75.035ZM125.19 38.5214H136.288L136.825 50.3347V100.899H125.19V38.5214Z" fill="#232323"/>
<path d="M211.222 83L186.79 25.0973H199.946L220.619 76.3774L216.77 76.4669L236.459 25.0973H250.152L269.84 76.4669L265.992 76.3774L286.665 25.0973H299.552L275.389 83H260.802L241.471 32.7938H245.23L225.809 83H211.222Z" fill="#168FFF"/>
<path d="M320.029 19.0117V29.214H306.516V19.0117H320.029ZM307.41 38.5214H319.045V83H307.41V38.5214Z" fill="#168FFF"/>
<path d="M328.851 68.2335H339.591C340.247 70.262 341.589 71.9326 343.618 73.2451C345.706 74.4981 348.421 75.1245 351.762 75.1245C354.029 75.1245 355.789 74.9157 357.042 74.4981C358.295 74.0804 359.16 73.4838 359.637 72.7082C360.115 71.8729 360.353 70.9481 360.353 69.9339C360.353 68.681 359.965 67.7264 359.19 67.0701C358.414 66.3541 357.221 65.7873 355.61 65.3697C353.999 64.952 351.941 64.5642 349.435 64.2062C346.929 63.7886 344.513 63.2815 342.186 62.6848C339.859 62.0882 337.801 61.3126 336.011 60.358C334.221 59.3437 332.789 58.0908 331.715 56.5992C330.701 55.048 330.194 53.1686 330.194 50.9611C330.194 48.8133 330.701 46.904 331.715 45.2335C332.789 43.5629 334.251 42.1609 336.1 41.0273C338.01 39.8937 340.217 39.0286 342.723 38.4319C345.288 37.8353 348.033 37.537 350.956 37.537C355.371 37.537 359.041 38.1933 361.964 39.5059C364.888 40.7588 367.065 42.5487 368.497 44.8755C369.989 47.1427 370.735 49.7679 370.735 52.751H360.443C359.965 50.5435 359.011 48.9624 357.579 48.0078C356.147 46.9935 353.939 46.4864 350.956 46.4864C348.033 46.4864 345.825 46.9339 344.334 47.8288C342.842 48.7238 342.096 49.9468 342.096 51.4981C342.096 52.751 342.544 53.7354 343.439 54.4514C344.393 55.1077 345.766 55.6446 347.556 56.0623C349.405 56.4799 351.702 56.9274 354.447 57.4047C356.773 57.882 358.981 58.419 361.069 59.0156C363.217 59.6122 365.126 60.3878 366.797 61.3424C368.467 62.2374 369.78 63.4605 370.735 65.0117C371.749 66.5033 372.256 68.4125 372.256 70.7393C372.256 73.6031 371.421 76.0195 369.75 77.9883C368.139 79.9572 365.812 81.4786 362.77 82.5525C359.727 83.5668 356.087 84.0739 351.851 84.0739C348.093 84.0739 344.841 83.6861 342.096 82.9105C339.412 82.0752 337.174 81.0311 335.384 79.7782C333.594 78.4656 332.192 77.0934 331.178 75.6615C330.224 74.1699 329.567 72.7678 329.209 71.4553C328.851 70.1427 328.732 69.0688 328.851 68.2335Z" fill="#168FFF"/>
<path d="M421.697 68.2335H432.973C432.496 71.2763 431.213 73.9909 429.125 76.3774C427.097 78.764 424.322 80.6433 420.802 82.0156C417.282 83.3878 412.986 84.0739 407.915 84.0739C402.247 84.0739 397.235 83.179 392.88 81.3891C388.525 79.5396 385.124 76.8846 382.678 73.4241C380.232 69.9637 379.009 65.7873 379.009 60.895C379.009 56.0026 380.202 51.8262 382.588 48.3658C384.975 44.8457 388.286 42.1609 392.522 40.3113C396.818 38.4618 401.83 37.537 407.557 37.537C413.404 37.537 418.267 38.4618 422.145 40.3113C426.023 42.1609 428.887 44.965 430.736 48.7238C432.645 52.4229 433.451 57.166 433.152 62.9533H390.732C391.031 65.2205 391.866 67.2789 393.238 69.1284C394.67 70.978 396.579 72.4397 398.966 73.5136C401.412 74.5876 404.306 75.1245 407.647 75.1245C411.346 75.1245 414.418 74.4981 416.865 73.2451C419.37 71.9326 420.981 70.262 421.697 68.2335ZM407.02 46.3969C402.724 46.3969 399.234 47.3515 396.549 49.2607C393.865 51.1103 392.134 53.4073 391.359 56.1518H421.608C421.309 53.1686 419.878 50.812 417.312 49.0817C414.806 47.2919 411.376 46.3969 407.02 46.3969Z" fill="#168FFF"/>
</svg>
