<svg width="432" height="82" viewBox="0 0 432 82" fill="none" xmlns="http://www.w3.org/2000/svg">
<path d="M0.789917 6.09732H61.8249V16.0312H0.789917V6.09732ZM25.4008 14.7782H37.3035V64H25.4008V14.7782Z" fill="#232323"/>
<path d="M64.3237 19.5214H75.958V64H64.3237V19.5214ZM93.0513 29.0973C89.7102 29.0973 86.8166 29.7536 84.3704 31.0662C81.9243 32.3191 79.9554 33.8703 78.4638 35.7199C76.9722 37.5694 75.9281 39.3593 75.3315 41.0895L75.242 36.1673C75.3017 35.4514 75.5403 34.4073 75.958 33.035C76.3756 31.6031 77.0021 30.0817 77.8373 28.4708C78.6726 26.8003 79.7764 25.2192 81.1486 23.7277C82.5209 22.1764 84.1914 20.9235 86.1603 19.9689C88.1292 19.0143 90.4262 18.537 93.0513 18.537V29.0973Z" fill="#232323"/>
<path d="M113.578 0.0117188V10.214H100.065V0.0117188H113.578ZM100.96 19.5214H112.594V64H100.96V19.5214Z" fill="#232323"/>
<path d="M156.587 65.0739C152.65 65.0739 149.279 64.3878 146.474 63.0156C143.73 61.5837 141.493 59.7341 139.762 57.4669C138.032 55.1401 136.749 52.6044 135.914 49.8599C135.079 47.1155 134.661 44.4306 134.661 41.8055C134.661 38.524 135.049 35.4812 135.825 32.6771C136.66 29.8729 137.943 27.4267 139.673 25.3386C141.403 23.1907 143.64 21.5201 146.385 20.3269C149.189 19.1336 152.59 18.537 156.587 18.537C161.062 18.537 165.089 19.5214 168.669 21.4903C172.249 23.4592 175.083 26.2037 177.171 29.7238C179.319 33.1842 180.393 37.2114 180.393 41.8055C180.393 46.5188 179.319 50.6356 177.171 54.1557C175.023 57.6161 172.159 60.3009 168.579 62.2101C165 64.1193 161.002 65.0739 156.587 65.0739ZM152.829 56.035C155.991 56.035 158.735 55.4384 161.062 54.2451C163.448 53.0519 165.268 51.4112 166.521 49.323C167.834 47.1751 168.49 44.6693 168.49 41.8055C168.49 37.5097 167.118 34.0493 164.373 31.4242C161.688 28.799 157.84 27.4864 152.829 27.4864C149.666 27.4864 146.773 28.0532 144.148 29.1868C141.582 30.3204 139.554 31.9611 138.062 34.109C136.57 36.1972 135.825 38.7627 135.825 41.8055C135.825 44.6693 136.511 47.1751 137.883 49.323C139.255 51.4112 141.224 53.0519 143.79 54.2451C146.355 55.4384 149.368 56.035 152.829 56.035ZM124.19 19.5214H135.288L135.825 31.3347V81.8988H124.19V19.5214Z" fill="#232323"/>
<path d="M209.803 64L185.372 6.09732H198.527L219.2 57.3774L215.352 57.4669L235.041 6.09732H248.733L268.422 57.4669L264.574 57.3774L285.247 6.09732H298.134L273.971 64H259.383L240.052 13.7938H243.811L224.391 64H209.803Z" fill="#232323"/>
<path d="M318.611 0.0117188V10.214H305.097V0.0117188H318.611ZM305.992 19.5214H317.626V64H305.992V19.5214Z" fill="#232323"/>
<path d="M327.433 49.2335H338.172C338.828 51.262 340.171 52.9326 342.199 54.2451C344.288 55.4981 347.002 56.1245 350.343 56.1245C352.611 56.1245 354.371 55.9157 355.624 55.4981C356.876 55.0804 357.742 54.4838 358.219 53.7082C358.696 52.8729 358.935 51.9481 358.935 50.9339C358.935 49.681 358.547 48.7264 357.771 48.0701C356.996 47.3541 355.803 46.7873 354.192 46.3697C352.581 45.952 350.522 45.5642 348.017 45.2062C345.511 44.7886 343.094 44.2815 340.768 43.6848C338.441 43.0882 336.382 42.3126 334.592 41.358C332.803 40.3437 331.371 39.0908 330.297 37.5992C329.282 36.048 328.775 34.1686 328.775 31.9611C328.775 29.8133 329.282 27.904 330.297 26.2335C331.371 24.5629 332.832 23.1609 334.682 22.0273C336.591 20.8937 338.799 20.0286 341.304 19.4319C343.87 18.8353 346.614 18.537 349.538 18.537C353.953 18.537 357.622 19.1933 360.546 20.5059C363.469 21.7588 365.647 23.5487 367.079 25.8755C368.57 28.1427 369.316 30.7679 369.316 33.751H359.024C358.547 31.5435 357.592 29.9624 356.16 29.0078C354.729 27.9935 352.521 27.4864 349.538 27.4864C346.614 27.4864 344.407 27.9339 342.915 28.8288C341.424 29.7238 340.678 30.9468 340.678 32.4981C340.678 33.751 341.125 34.7354 342.02 35.4514C342.975 36.1077 344.347 36.6446 346.137 37.0623C347.987 37.4799 350.284 37.9274 353.028 38.4047C355.355 38.882 357.563 39.419 359.651 40.0156C361.799 40.6122 363.708 41.3878 365.378 42.3424C367.049 43.2374 368.362 44.4605 369.316 46.0117C370.33 47.5033 370.838 49.4125 370.838 51.7393C370.838 54.6031 370.002 57.0195 368.332 58.9883C366.721 60.9572 364.394 62.4786 361.351 63.5525C358.308 64.5668 354.669 65.0739 350.433 65.0739C346.674 65.0739 343.422 64.6861 340.678 63.9105C337.993 63.0752 335.756 62.0311 333.966 60.7782C332.176 59.4656 330.774 58.0934 329.76 56.6615C328.805 55.1699 328.149 53.7678 327.791 52.4553C327.433 51.1427 327.314 50.0688 327.433 49.2335Z" fill="#232323"/>
<path d="M420.279 49.2335H431.555C431.078 52.2763 429.795 54.9909 427.707 57.3774C425.678 59.764 422.904 61.6433 419.384 63.0156C415.864 64.3878 411.568 65.0739 406.497 65.0739C400.829 65.0739 395.817 64.179 391.462 62.3891C387.106 60.5396 383.706 57.8846 381.259 54.4241C378.813 50.9637 377.59 46.7873 377.59 41.895C377.59 37.0026 378.783 32.8262 381.17 29.3658C383.556 25.8457 386.868 23.1609 391.104 21.3113C395.399 19.4618 400.411 18.537 406.139 18.537C411.986 18.537 416.848 19.4618 420.726 21.3113C424.604 23.1609 427.468 25.965 429.318 29.7238C431.227 33.4229 432.032 38.166 431.734 43.9533H389.314C389.612 46.2205 390.447 48.2789 391.82 50.1284C393.252 51.978 395.161 53.4397 397.547 54.5136C399.994 55.5876 402.887 56.1245 406.228 56.1245C409.927 56.1245 413 55.4981 415.446 54.2451C417.952 52.9326 419.563 51.262 420.279 49.2335ZM405.602 27.3969C401.306 27.3969 397.816 28.3515 395.131 30.2607C392.446 32.1103 390.716 34.4073 389.94 37.1518H420.189C419.891 34.1686 418.459 31.812 415.894 30.0817C413.388 28.2919 409.957 27.3969 405.602 27.3969Z" fill="#232323"/>
</svg>
