<svg width="437" height="107" viewBox="0 0 437 107" fill="none" xmlns="http://www.w3.org/2000/svg">
<path d="M1.78992 25.0973H62.8249V35.0312H1.78992V25.0973ZM26.4008 33.7782H38.3035V83H26.4008V33.7782Z" fill="white"/>
<path d="M65.3237 38.5214H76.958V83H65.3237V38.5214ZM94.0513 48.0973C90.7102 48.0973 87.8166 48.7536 85.3704 50.0662C82.9243 51.3191 80.9554 52.8703 79.4638 54.7199C77.9722 56.5694 76.9281 58.3593 76.3315 60.0895L76.242 55.1673C76.3017 54.4514 76.5403 53.4073 76.958 52.035C77.3756 50.6031 78.0021 49.0817 78.8373 47.4708C79.6726 45.8003 80.7764 44.2192 82.1486 42.7277C83.5209 41.1764 85.1914 39.9235 87.1603 38.9689C89.1292 38.0143 91.4262 37.537 94.0513 37.537V48.0973Z" fill="white"/>
<path d="M114.578 19.0117V29.214H101.065V19.0117H114.578ZM101.96 38.5214H113.594V83H101.96V38.5214Z" fill="white"/>
<path d="M157.587 84.0739C153.65 84.0739 150.279 83.3878 147.474 82.0156C144.73 80.5837 142.493 78.7341 140.762 76.4669C139.032 74.1401 137.749 71.6044 136.914 68.8599C136.079 66.1155 135.661 63.4306 135.661 60.8055C135.661 57.524 136.049 54.4812 136.825 51.6771C137.66 48.8729 138.943 46.4267 140.673 44.3386C142.403 42.1907 144.64 40.5201 147.385 39.3269C150.189 38.1336 153.59 37.537 157.587 37.537C162.062 37.537 166.089 38.5214 169.669 40.4903C173.249 42.4592 176.083 45.2037 178.171 48.7238C180.319 52.1842 181.393 56.2114 181.393 60.8055C181.393 65.5188 180.319 69.6356 178.171 73.1557C176.023 76.6161 173.159 79.3009 169.579 81.2101C166 83.1193 162.002 84.0739 157.587 84.0739ZM153.829 75.035C156.991 75.035 159.735 74.4384 162.062 73.2451C164.448 72.0519 166.268 70.4112 167.521 68.323C168.834 66.1751 169.49 63.6693 169.49 60.8055C169.49 56.5097 168.118 53.0493 165.373 50.4242C162.688 47.799 158.84 46.4864 153.829 46.4864C150.666 46.4864 147.773 47.0532 145.148 48.1868C142.582 49.3204 140.554 50.9611 139.062 53.109C137.57 55.1972 136.825 57.7627 136.825 60.8055C136.825 63.6693 137.511 66.1751 138.883 68.323C140.255 70.4112 142.224 72.0519 144.79 73.2451C147.355 74.4384 150.368 75.035 153.829 75.035ZM125.19 38.5214H136.288L136.825 50.3347V100.899H125.19V38.5214Z" fill="white"/>
<path d="M210.803 83L186.372 25.0973H199.527L220.2 76.3774L216.352 76.4669L236.041 25.0973H249.733L269.422 76.4669L265.574 76.3774L286.247 25.0973H299.134L274.971 83H260.383L241.052 32.7938H244.811L225.391 83H210.803Z" fill="white"/>
<path d="M319.611 19.0117V29.214H306.097V19.0117H319.611ZM306.992 38.5214H318.626V83H306.992V38.5214Z" fill="white"/>
<path d="M328.433 68.2335H339.172C339.828 70.262 341.171 71.9326 343.199 73.2451C345.288 74.4981 348.002 75.1245 351.343 75.1245C353.611 75.1245 355.371 74.9157 356.624 74.4981C357.876 74.0804 358.742 73.4838 359.219 72.7082C359.696 71.8729 359.935 70.9481 359.935 69.9339C359.935 68.681 359.547 67.7264 358.771 67.0701C357.996 66.3541 356.803 65.7873 355.192 65.3697C353.581 64.952 351.522 64.5642 349.017 64.2062C346.511 63.7886 344.094 63.2815 341.768 62.6848C339.441 62.0882 337.382 61.3126 335.592 60.358C333.803 59.3437 332.371 58.0908 331.297 56.5992C330.282 55.048 329.775 53.1686 329.775 50.9611C329.775 48.8133 330.282 46.904 331.297 45.2335C332.371 43.5629 333.832 42.1609 335.682 41.0273C337.591 39.8937 339.799 39.0286 342.304 38.4319C344.87 37.8353 347.614 37.537 350.538 37.537C354.953 37.537 358.622 38.1933 361.546 39.5059C364.469 40.7588 366.647 42.5487 368.079 44.8755C369.57 47.1427 370.316 49.7679 370.316 52.751H360.024C359.547 50.5435 358.592 48.9624 357.16 48.0078C355.729 46.9935 353.521 46.4864 350.538 46.4864C347.614 46.4864 345.407 46.9339 343.915 47.8288C342.424 48.7238 341.678 49.9468 341.678 51.4981C341.678 52.751 342.125 53.7354 343.02 54.4514C343.975 55.1077 345.347 55.6446 347.137 56.0623C348.987 56.4799 351.284 56.9274 354.028 57.4047C356.355 57.882 358.563 58.419 360.651 59.0156C362.799 59.6122 364.708 60.3878 366.378 61.3424C368.049 62.2374 369.362 63.4605 370.316 65.0117C371.33 66.5033 371.838 68.4125 371.838 70.7393C371.838 73.6031 371.002 76.0195 369.332 77.9883C367.721 79.9572 365.394 81.4786 362.351 82.5525C359.308 83.5668 355.669 84.0739 351.433 84.0739C347.674 84.0739 344.422 83.6861 341.678 82.9105C338.993 82.0752 336.756 81.0311 334.966 79.7782C333.176 78.4656 331.774 77.0934 330.76 75.6615C329.805 74.1699 329.149 72.7678 328.791 71.4553C328.433 70.1427 328.314 69.0688 328.433 68.2335Z" fill="white"/>
<path d="M421.279 68.2335H432.555C432.078 71.2763 430.795 73.9909 428.707 76.3774C426.678 78.764 423.904 80.6433 420.384 82.0156C416.864 83.3878 412.568 84.0739 407.497 84.0739C401.829 84.0739 396.817 83.179 392.462 81.3891C388.106 79.5396 384.706 76.8846 382.259 73.4241C379.813 69.9637 378.59 65.7873 378.59 60.895C378.59 56.0026 379.783 51.8262 382.17 48.3658C384.556 44.8457 387.868 42.1609 392.104 40.3113C396.399 38.4618 401.411 37.537 407.139 37.537C412.986 37.537 417.848 38.4618 421.726 40.3113C425.604 42.1609 428.468 44.965 430.318 48.7238C432.227 52.4229 433.032 57.166 432.734 62.9533H390.314C390.612 65.2205 391.447 67.2789 392.82 69.1284C394.252 70.978 396.161 72.4397 398.547 73.5136C400.994 74.5876 403.887 75.1245 407.228 75.1245C410.927 75.1245 414 74.4981 416.446 73.2451C418.952 71.9326 420.563 70.262 421.279 68.2335ZM406.602 46.3969C402.306 46.3969 398.816 47.3515 396.131 49.2607C393.446 51.1103 391.716 53.4073 390.94 56.1518H421.189C420.891 53.1686 419.459 50.812 416.894 49.0817C414.388 47.2919 410.957 46.3969 406.602 46.3969Z" fill="white"/>
</svg>
