<svg width="24" height="24" viewBox="0 0 24 24" fill="none" xmlns="http://www.w3.org/2000/svg">
<path fill-rule="evenodd" clip-rule="evenodd" d="M3.79801 5.786C4.86503 4.79799 6.26581 4.24939 7.72001 4.25C9.17501 4.25 10.577 4.798 11.642 5.786L11.647 5.791L11.988 6.113L12.32 5.796C13.3879 4.80512 14.7912 4.25496 16.248 4.256C17.706 4.256 19.11 4.806 20.176 5.796L20.18 5.8C21.273 6.832 21.779 8.124 21.749 9.462C21.719 10.785 21.171 12.105 20.249 13.247C19.365 14.343 17.399 16.19 15.702 17.725C14.6617 18.6653 13.6106 19.5937 12.549 20.51L12.48 20.569L11.991 20L12.481 20.569L11.995 20.985L11.507 20.573C8.79864 18.2802 6.21179 15.8475 3.75701 13.285L3.73601 13.264L3.71601 13.241C1.99101 11.126 1.51301 7.921 3.79601 5.788L3.79801 5.786ZM11.988 19.012C12.899 18.2214 13.8017 17.4213 14.696 16.612C16.416 15.056 18.286 13.292 19.081 12.306C19.838 11.367 20.229 10.358 20.249 9.429C20.269 8.517 19.936 7.634 19.152 6.893C18.3622 6.16097 17.3249 5.75448 16.248 5.755C15.1717 5.75419 14.1349 6.15993 13.345 6.891L11.995 8.183L10.62 6.883C9.83044 6.15373 8.79484 5.74913 7.72001 5.75C6.64457 5.74942 5.60853 6.15476 4.81901 6.885C3.31201 8.293 3.46601 10.544 4.86101 12.27C7.12545 14.6321 9.50395 16.8821 11.988 19.012Z" fill="black"/>
</svg>
