<svg width="24" height="24" viewBox="0 0 24 24" fill="none" xmlns="http://www.w3.org/2000/svg">
<path fill-rule="evenodd" clip-rule="evenodd" d="M14.288 6.793L6.69001 14.368L5.87401 18.114L9.59801 17.275L17.186 9.692L14.286 6.792L14.288 6.793ZM18.248 8.633L15.35 5.733L15.906 5.179C16.3345 4.75035 16.9139 4.50661 17.52 4.5C17.898 4.5 18.25 4.604 18.551 4.815L18.561 4.822L18.573 4.83C19.693 5.587 19.794 7.09 18.899 7.981L18.249 8.632L18.248 8.633ZM10.352 18.643L4.36201 19.993C4.34001 20 4.31901 20 4.29801 20C4.25368 20 4.20992 19.99 4.16994 19.9709C4.12996 19.9517 4.09477 19.9238 4.06696 19.8893C4.03915 19.8548 4.01942 19.8145 4.00922 19.7713C3.99902 19.7282 3.99861 19.6833 4.00801 19.64L5.31801 13.617L14.847 4.117C15.5567 3.40796 16.5169 3.00671 17.52 3C18.18 3 18.838 3.184 19.413 3.587C19.8513 3.87639 20.2196 4.25976 20.4911 4.70928C20.7627 5.15879 20.9307 5.66315 20.983 6.18573C21.0353 6.7083 20.9705 7.23596 20.7934 7.73037C20.6163 8.22478 20.3312 8.67352 19.959 9.044L10.352 18.643Z" fill="black"/>
</svg>
